<svg width="90" height="90" viewBox="0 0 90 90" fill="none" xmlns="http://www.w3.org/2000/svg">
<rect width="90" height="90" rx="45" fill="#DBE1FF"/>
<path fill-rule="evenodd" clip-rule="evenodd" d="M58.5001 36C58.5001 43.4558 52.4559 49.5 45.0001 49.5C37.5442 49.5 31.5001 43.4558 31.5001 36C31.5001 28.5442 37.5442 22.5 45.0001 22.5C52.4559 22.5 58.5001 28.5442 58.5001 36ZM54.0001 36C54.0001 40.9706 49.9706 45 45.0001 45C40.0295 45 36.0001 40.9706 36.0001 36C36.0001 31.0294 40.0295 27 45.0001 27C49.9706 27 54.0001 31.0294 54.0001 36Z" fill="#334478"/>
<path d="M45.0001 56.25C30.4327 56.25 18.0209 64.8639 13.293 76.9321C14.4447 78.0758 15.658 79.1576 16.9275 80.1721C20.4481 69.0923 31.4927 60.75 45.0001 60.75C58.5075 60.75 69.552 69.0923 73.0727 80.1722C74.3421 79.1576 75.5554 78.0758 76.7072 76.9321C71.9792 64.8639 59.5674 56.25 45.0001 56.25Z" fill="#334478"/>
</svg>
